<svg width="400" height="644" viewBox="0 0 400 644" fill="none" xmlns="http://www.w3.org/2000/svg">
<path d="M0 200C0 89.5432 89.5431 0 200 0V0C310.457 0 400 89.543 400 200V643.686H0V200Z" fill="#9DDEF3"/>
<path fill-rule="evenodd" clip-rule="evenodd" d="M206.476 178.368C213.223 182.433 219.853 184.398 222.965 183.596C230.768 181.585 231.486 153.05 225.448 141.8C219.41 130.551 188.37 125.647 186.806 147.936C186.263 155.672 189.512 162.576 194.313 168.209L185.705 208.318H210.711L206.476 178.368Z" fill="#D4A181"/>
<path fill-rule="evenodd" clip-rule="evenodd" d="M221.302 129.447C226.581 130.084 230.927 130.609 232.829 129.399C234.186 137.901 229.808 144.757 214.419 143.432C211.026 145.329 208.611 148.885 205.704 153.548C204.996 153.27 204.224 153.117 203.418 153.117C199.965 153.117 197.166 155.915 197.166 159.366C197.166 161.118 197.887 162.702 199.049 163.837C197.603 165.878 195.982 168.01 194.124 170.21C187.191 166.052 182.035 153.935 188.654 142.238C192.605 125.983 209.346 128.004 221.302 129.447Z" fill="#191847"/>
<path fill-rule="evenodd" clip-rule="evenodd" d="M177.369 294.764L216.578 422.895L235.572 531.863H250.465L230.395 294.764H177.369Z" fill="#BA8B72"/>
<path fill-rule="evenodd" clip-rule="evenodd" d="M163.342 294.764C166.005 365.115 162.871 401.403 162.275 407.795C161.679 414.187 153.517 455.631 134.195 534.009L150.064 528.561C180.601 456.677 191.007 419.317 194.509 409.878C198.012 400.439 207.314 362.067 222.416 294.764H163.342Z" fill="#D4A181"/>
<path fill-rule="evenodd" clip-rule="evenodd" d="M137.118 527.281C136.047 526.807 134.774 527.283 134.374 528.383C133.612 530.473 132.565 533.672 132.565 535.464C132.565 538.281 133.504 543.686 133.504 543.686C136.774 543.686 192.272 543.686 192.272 543.686C192.272 543.686 194.563 536.116 189.627 535.512C184.692 534.909 181.427 534.422 181.427 534.422L154.073 522.233C153.559 522.003 152.956 522.244 152.742 522.765L150.969 527.062C150.969 527.062 146.401 529.193 143.544 529.193C141.779 529.193 138.991 528.109 137.118 527.281Z" fill="white"/>
<path fill-rule="evenodd" clip-rule="evenodd" d="M235.061 527.281C233.99 526.807 232.717 527.283 232.316 528.383C231.555 530.473 230.508 533.672 230.508 535.464C230.508 538.281 231.447 543.686 231.447 543.686C234.717 543.686 290.215 543.686 290.215 543.686C290.215 543.686 292.506 536.116 287.57 535.512C282.635 534.909 279.37 534.422 279.37 534.422L252.016 522.233C251.501 522.003 250.899 522.244 250.684 522.765L248.912 527.062C248.912 527.062 244.343 529.193 241.487 529.193C239.722 529.193 236.934 528.109 235.061 527.281Z" fill="white"/>
<path fill-rule="evenodd" clip-rule="evenodd" d="M172.159 294.764L188.83 360.045H239.751L232.158 294.764H172.159Z" fill="#6E6D77"/>
<path fill-rule="evenodd" clip-rule="evenodd" d="M162.782 294.764C154.554 319.417 159.656 360.045 159.656 360.045H211.618L225.906 294.764H162.782Z" fill="#87868E"/>
<path fill-rule="evenodd" clip-rule="evenodd" d="M305.903 175.992L266.41 187.842L276.493 204.633L307.2 186.569C321.534 185.716 328.307 184.303 327.518 182.33C326.853 180.666 325.27 180.383 323.812 180.122C322.676 179.918 321.616 179.728 321.125 178.91C320.003 177.042 323.936 172.178 327.866 167.723C331.795 163.267 328.651 163.059 326.751 163.417C320.22 166.067 313.271 170.259 305.903 175.992ZM296.156 281.84L262.92 257.444L255.573 275.599L288.485 289.241C297.793 300.171 302.998 304.727 304.1 302.91C305.029 301.378 304.303 299.944 303.634 298.623C303.113 297.593 302.627 296.633 302.985 295.748C303.802 293.728 310.055 293.941 315.98 294.396C321.905 294.852 320.178 292.217 318.75 290.915C312.702 287.297 305.17 284.272 296.156 281.84Z" fill="#D4A181"/>
<path fill-rule="evenodd" clip-rule="evenodd" d="M211.295 191.744C229.395 225.478 255.567 251.338 293.51 278.22L279.143 294.412C236.779 278.675 214.419 269.18 203.439 237.308C200.684 229.309 198.758 203.809 197.105 190.392L211.295 191.744Z" fill="#F9F9F9"/>
<path fill-rule="evenodd" clip-rule="evenodd" d="M160.698 304.137H240.928C240.928 304.137 213.668 221.033 213.077 190.062C213.057 189.009 211.112 187.154 210.251 187.397C200.813 190.062 190.051 185.404 190.051 185.404C171.031 215.982 164.454 253.628 160.698 304.137Z" fill="#FDE9A5"/>
<path fill-rule="evenodd" clip-rule="evenodd" d="M210.176 232.055C222.707 285.783 222.129 329.765 194.465 329.765H151.686C144.892 284.123 162.749 220.84 179.303 188.921C179.935 187.702 181.281 185.404 184.451 185.404H196.881C196.887 185.421 196.892 185.437 196.898 185.454C200.638 185.484 204.757 185.621 209.218 185.769C232.184 186.531 264.206 187.594 300.238 176.031L304.486 197.25C271.964 218.158 239.032 234.355 210.176 232.055Z" fill="white"/>
</svg>
