<svg width="400" height="644" viewBox="0 0 400 644" fill="none" xmlns="http://www.w3.org/2000/svg">
<path d="M0 200C0 89.5431 89.5431 0 200 0V0C310.457 0 400 89.5431 400 200V643.69H0V200Z" fill="#FFA7D1"/>
<path fill-rule="evenodd" clip-rule="evenodd" d="M205.935 184.089C212.411 187.992 218.774 189.878 221.76 189.108C229.25 187.178 229.938 159.78 224.143 148.979C218.349 138.178 188.558 133.47 187.057 154.87C186.536 162.298 189.654 168.926 194.262 174.335L186 212.845H210L205.935 184.089Z" fill="#B28B67"/>
<path fill-rule="evenodd" clip-rule="evenodd" d="M213.797 150.416C210.414 152.203 208.052 155.673 205.194 160.259C204.514 159.992 203.774 159.845 203 159.845C199.686 159.845 197 162.531 197 165.845C197 167.527 197.692 169.048 198.808 170.137C197.419 172.097 195.863 174.144 194.08 176.256C187.382 172.238 182.412 160.474 188.961 149.173C190.771 143.637 194.868 140.68 199.707 139.307C203.627 137.667 207.697 137.483 211.132 138.466C217.866 139.043 223.879 141.097 225.583 142.316C225.583 148.691 224.348 150.583 213.797 150.416V150.416Z" fill="#464646"/>
<path fill-rule="evenodd" clip-rule="evenodd" d="M178 295.845L214.631 422.072L231.86 516.845H249.153L231.891 295.845H178Z" fill="#997659"/>
<path fill-rule="evenodd" clip-rule="evenodd" d="M161.538 295.845C164.094 361.419 163.086 397.185 162.514 403.143C161.942 409.101 158.694 449.001 136.564 518.845H154.55C183.858 451.842 194.089 411.941 197.45 403.143C200.812 394.345 210.739 358.579 225.233 295.845H161.538Z" fill="#B28B67"/>
<path fill-rule="evenodd" clip-rule="evenodd" d="M177.214 295.845C186.742 339.28 203.222 408.613 226.653 503.845H251.946C253.814 406.099 245.867 341.765 232.105 295.845H177.214Z" fill="#80C0D4"/>
<path fill-rule="evenodd" clip-rule="evenodd" d="M161.41 295.845C163.913 361.419 157.426 426.022 137.331 504.866H164.317C193.679 438.863 214.723 374.579 229.106 295.845H161.41Z" fill="#9DDEF3"/>
<path fill-rule="evenodd" clip-rule="evenodd" d="M134 531.845L134.915 517.094C134.955 516.454 135.577 516.016 136.205 516.149C144.872 517.991 156.826 513.845 156.826 513.845C168.857 522.367 186.201 526.278 192.308 527.449C193.49 527.676 194.248 528.868 193.92 530.025L192.553 534.845H156.826H135.985L134 531.845Z" fill="#464646"/>
<path fill-rule="evenodd" clip-rule="evenodd" d="M228 531.845L228.915 517.094C228.955 516.454 229.577 516.016 230.205 516.149C238.872 517.991 250.826 513.845 250.826 513.845C262.857 522.367 280.201 526.278 286.308 527.449C287.49 527.676 288.248 528.868 287.92 530.025L286.553 534.845H250.826H229.985L228 531.845Z" fill="#464646"/>
<path fill-rule="evenodd" clip-rule="evenodd" d="M294.679 306.48L262.781 283.056L255.73 300.487L287.317 313.586C296.251 324.08 301.246 328.455 302.304 326.71C303.195 325.239 302.498 323.862 301.856 322.594C301.356 321.605 300.89 320.683 301.233 319.834C302.018 317.894 308.019 318.099 313.705 318.536C319.392 318.973 317.735 316.443 316.363 315.194C310.559 311.719 303.331 308.815 294.679 306.48ZM127.398 347.753C130.328 341.808 140.308 283.865 140.308 283.865L161.205 283.947C161.205 283.947 141.851 346.428 140.308 350.251C138.304 355.217 141.708 362.432 144.016 367.325C144.373 368.082 144.704 368.783 144.985 369.412C141.782 370.845 140.243 369.113 138.621 367.287C136.79 365.224 134.851 363.042 130.288 365.164C128.525 365.985 126.857 366.954 125.227 367.902C119.597 371.174 114.425 374.181 107.389 369.839C106.274 369.151 105.051 366.56 108.005 364.535C115.362 359.49 125.965 350.66 127.398 347.753Z" fill="#B28B67"/>
<path fill-rule="evenodd" clip-rule="evenodd" d="M199.695 196.177L208.342 194.694C240.425 222.409 253.603 275.654 292.929 303.86L283.464 315.593C215.24 307.145 198.33 242.2 199.695 196.177Z" fill="#87868E"/>
<path fill-rule="evenodd" clip-rule="evenodd" d="M162 304.845C162 304.845 214.008 304.845 238.511 304.845C242.008 304.845 241.349 299.797 240.843 297.249C235.011 267.849 212.241 236.157 212.241 194.306L190.172 190.845C171.917 220.203 165.605 256.35 162 304.845Z" fill="#88CF94"/>
<path fill-rule="evenodd" clip-rule="evenodd" d="M153.397 325.845C149.958 334.104 146.586 341.31 143.409 346.845H127C125.235 289.764 146.845 245.841 164.932 219.358C160.916 219.071 157.291 217.39 155 213.256C146.934 198.701 149.847 190.687 158.467 188.053C163.208 186.605 167.666 187.593 173.002 188.777C177.369 189.745 182.325 190.844 188.504 190.845C188.506 190.845 188.508 190.845 188.51 190.845C189.109 190.845 189.654 190.885 190.149 190.962L197.472 191.38C197.472 191.38 227.205 292.15 213.872 325.845H153.397Z" fill="#87868E"/>
<path fill-rule="evenodd" clip-rule="evenodd" d="M153.397 325.845C157.909 315.009 162.535 302.361 166.987 289.299C168.645 303.684 171.405 318.131 176 325.845H153.397Z" fill="black" fill-opacity="0.1"/>
</svg>
