<svg width="400" height="644" viewBox="0 0 400 644" fill="none" xmlns="http://www.w3.org/2000/svg">
<path d="M0 200C0 89.5431 89.5431 0 200 0V0C310.457 0 400 89.5431 400 200V643.69H0V200Z" fill="#FDE9A5"/>
<path fill-rule="evenodd" clip-rule="evenodd" d="M205.935 184.089C212.411 187.992 218.774 189.878 221.76 189.108C229.25 187.178 229.938 159.78 224.143 148.979C218.349 138.178 188.558 133.47 187.057 154.87C186.536 162.298 189.654 168.926 194.262 174.335L186 212.845H210L205.935 184.089Z" fill="#D4A181"/>
<path fill-rule="evenodd" clip-rule="evenodd" d="M226.409 153.829C226.171 152.429 225.59 150.874 225.122 149.549C224.517 147.842 223.603 146.302 222.596 144.851C220.701 142.119 218.428 139.652 215.918 137.605C211.333 133.865 205.497 131.708 199.757 132.409C196.86 132.762 194.047 133.868 191.653 135.707C189.489 137.37 187.409 139.817 184.608 139.992C181.56 140.184 178.766 137.493 176.322 135.832C173.566 133.959 170.634 132.594 167.413 132.064C162.017 131.175 156.948 132.998 153.229 137.425C149.272 142.137 146.396 149.045 148.994 155.287C149.477 156.448 150.099 157.426 150.991 158.237C151.809 158.98 153.058 159.771 153.39 160.959C153.742 162.222 152.69 163.851 152.281 164.99C151.697 166.623 151.217 168.336 151.388 170.111C151.668 173.025 153.499 175.806 155.433 177.721C157.4 179.67 159.822 180.788 162.409 181.303C164.136 181.647 165.901 181.837 167.657 181.708C168.528 181.644 169.297 181.402 170.141 181.209C170.962 181.022 171.421 181.24 172.118 181.69C175.354 183.782 178.833 184.592 182.57 184.281C185.724 184.018 189.358 183.254 191.931 181.093C194.788 178.693 194.731 175.384 194.059 171.849C194.771 172.202 196.742 172.42 195.564 171.013C195.098 170.456 194.216 170.229 193.618 169.901C192.921 169.52 192.213 169.026 191.672 168.404C189.487 165.89 191.694 160.775 194.44 159.932C198.521 158.68 199.434 164.45 202.347 165.943C204.022 166.801 205.774 165.628 207.029 164.431C208.71 162.826 209.855 160.7 210.844 158.537C211.659 156.755 212.417 154.949 213.248 153.176C213.635 152.348 214.978 150.008 214.304 149.072C217.226 148.489 220.482 149.704 222.999 151.297C224.039 151.955 224.832 152.681 225.387 153.843C225.506 154.093 225.765 154.833 226.09 154.863C226.695 154.92 226.469 154.18 226.409 153.829" fill="#191847"/>
<path fill-rule="evenodd" clip-rule="evenodd" d="M178 295.845L226.082 423.072L259.783 516.845H279L232.674 295.845L178 295.845Z" fill="#464646"/>
<path fill-rule="evenodd" clip-rule="evenodd" d="M166.117 295.845C165.594 339.499 165.972 398.272 164.754 400.994C163.536 403.715 89 463.002 89 463.002L98.905 479.845C98.905 479.845 187.397 422.779 191.921 415.176C196.445 407.573 219.174 337.608 231 295.845H166.117Z" fill="#464646"/>
<path fill-rule="evenodd" clip-rule="evenodd" d="M71.574 474.336L88.3037 461.604L101.802 477.691C103.36 495.882 113.848 518.494 113.848 518.494L110.784 521.065L86.3581 491.955L79.5339 480.711L78.0018 481.997L71.574 474.336Z" fill="black"/>
<path fill-rule="evenodd" clip-rule="evenodd" d="M258 534.845L259 513.845L280 513.845C294.936 524.345 319 530.845 319 530.845V534.845H281L268 532.845V534.845H258Z" fill="black"/>
<path fill-rule="evenodd" clip-rule="evenodd" d="M306.235 252.549L270 268.462L281.57 283.284L308.707 262.478C322.262 259.988 328.549 257.849 327.566 256.061C326.738 254.554 325.197 254.469 323.778 254.39C322.672 254.329 321.64 254.272 321.076 253.55C319.789 251.901 322.966 246.806 326.188 242.1C329.41 237.394 326.39 237.564 324.623 238.127C318.711 241.417 312.582 246.224 306.235 252.549ZM144 276.911L123.508 272.845C109.611 309.475 101.326 329.547 98.6523 333.063C96.692 335.641 84.6026 342.282 76.4198 345.829C73.1354 347.252 73.8406 350.028 74.8039 350.916C80.8802 356.517 86.5292 354.554 92.6783 352.417C94.4585 351.798 96.2806 351.165 98.1672 350.696C103.05 349.484 104.536 351.995 105.94 354.368C107.184 356.469 108.363 358.461 111.779 357.666C111.624 356.996 111.433 356.245 111.227 355.434C109.895 350.194 107.931 342.465 110.845 337.975C112.34 335.671 123.392 315.316 144 276.911Z" fill="#D4A181"/>
<path fill-rule="evenodd" clip-rule="evenodd" d="M199.695 196.177L208.342 194.694C227.176 212.964 234.862 256.857 247.414 262.668C259.281 268.161 276.104 262.845 296.1 255.667L302.223 269.35C284.055 289.006 245.349 305.612 229.66 296.132C204.576 280.975 198.786 226.839 199.695 196.177Z" fill="#FFA7D1"/>
<path fill-rule="evenodd" clip-rule="evenodd" d="M162 304.845C162 304.845 214.008 304.845 238.511 304.845C242.008 304.845 241.349 299.797 240.843 297.249C235.011 267.849 212.241 236.157 212.241 194.306L190.172 190.845C171.917 220.203 165.605 256.35 162 304.845Z" fill="#9DDEF3"/>
<path fill-rule="evenodd" clip-rule="evenodd" d="M189 190.845H188.748C139.247 221.349 109.331 268.636 99 332.704L115.037 335.845C125.661 323.468 138.771 303.213 154.369 275.078C149.583 292.026 146.09 309.408 145 325.845H213.872C227.205 292.15 197.486 190.845 197.486 190.845H192.731H189Z" fill="#FFA7D1"/>
</svg>
