<svg width="400" height="644" viewBox="0 0 400 644" fill="none" xmlns="http://www.w3.org/2000/svg">
<path d="M0 200C0 89.5431 89.5431 0 200 0V0C310.457 0 400 89.5431 400 200V643.69H0V200Z" fill="#88CF94"/>
<path fill-rule="evenodd" clip-rule="evenodd" d="M205.935 184.089C212.411 187.992 218.774 189.878 221.76 189.108C229.25 187.178 229.938 159.78 224.143 148.979C218.349 138.178 188.558 133.47 187.057 154.87C186.536 162.298 189.654 168.926 194.262 174.335L186 212.845H210L205.935 184.089Z" fill="#915B3C"/>
<path fill-rule="evenodd" clip-rule="evenodd" d="M220.965 145.288C221.5 145.468 220.965 143.168 219.687 142.326C215.766 139.747 204.095 135.929 196.114 137.586C190.767 138.696 184.099 141.481 179.829 145.033C175.979 148.234 172.476 153.878 171.113 158.837C169.682 164.043 169.141 171.288 171.113 175.831C173.462 181.24 181.78 187.071 182 187.845C182.251 188.729 181.268 192.181 180.548 195.818C179.829 199.455 180.156 208.717 180.548 210.227C181.175 212.641 184.535 213.828 186 214.003C194.1 214.968 199.972 225.024 202.416 227.597C202.416 227.597 218.732 243.978 225.191 241.845C226.324 241.471 224.625 227.901 223.492 222.085C222.359 216.269 211.245 205.889 210.533 202.469C210.114 200.454 210.044 196.946 210 196.786C208.952 189.56 209.132 188.973 207.603 186.028C206.074 183.083 204.889 182.911 205.256 182.053C207.052 177.862 212.826 165.038 214.137 160.845C215.698 155.847 214.96 157.489 216.57 152.508C217.283 150.303 218.19 144.355 220.965 145.288Z" fill="#FFA7D1"/>
<mask id="mask0_207_664" style="mask-type:alpha" maskUnits="userSpaceOnUse" x="169" y="137" width="57" height="106">
<path fill-rule="evenodd" clip-rule="evenodd" d="M220.965 145.288C221.5 145.468 220.965 143.168 219.687 142.326C215.766 139.747 204.095 135.929 196.114 137.586C190.767 138.696 184.099 141.481 179.829 145.033C175.979 148.234 172.476 153.878 171.113 158.837C169.682 164.043 169.141 171.288 171.113 175.831C173.462 181.24 181.78 187.071 182 187.845C182.251 188.729 181.268 192.181 180.548 195.818C179.829 199.455 180.156 208.717 180.548 210.227C181.175 212.641 184.535 213.828 186 214.003C194.1 214.968 199.972 225.024 202.416 227.597C202.416 227.597 218.732 243.978 225.191 241.845C226.324 241.471 224.625 227.901 223.492 222.085C222.359 216.269 211.245 205.889 210.533 202.469C210.114 200.454 210.044 196.946 210 196.786C208.952 189.56 209.132 188.973 207.603 186.028C206.074 183.083 204.889 182.911 205.256 182.053C207.052 177.862 212.826 165.038 214.137 160.845C215.698 155.847 214.96 157.489 216.57 152.508C217.283 150.303 218.19 144.355 220.965 145.288Z" fill="white"/>
</mask>
<g mask="url(#mask0_207_664)">
<path fill-rule="evenodd" clip-rule="evenodd" d="M198.562 161.987C198.185 154.382 198.562 151.411 200.316 145.845H199.234C197.524 148.054 196.094 154.81 197.701 161.987H198.562ZM177.364 161.629L177.364 161.629L177.364 161.628C177.175 161.167 176.982 160.694 176.782 160.209L176.094 160.54C178.264 168.476 180.903 174.602 189.965 179.738L190.67 179.244C182.1 173.218 180.262 168.721 177.364 161.629ZM190.213 152.137C190.304 152.826 190.391 153.496 190.476 154.151V154.151C191.778 164.204 192.605 170.58 199.866 182.143L199.044 182.394C191.083 171.671 189.821 162.919 189.445 152.199L190.213 152.137ZM182.374 184.725L181.669 185.581C185.196 186.319 187.594 188.913 190.343 191.887C193.251 195.033 196.553 198.604 202 200.852L203.011 200.239C197.066 197.148 194.3 194.075 191.885 191.393C189.385 188.616 187.26 186.256 182.374 184.725Z" fill="black" fill-opacity="0.2"/>
</g>
<path fill-rule="evenodd" clip-rule="evenodd" d="M147.408 393.933C147.408 393.933 183.392 403.998 209.5 403.998C235.608 403.998 258 388.498 258 388.498C258 388.498 222.786 378.168 200 378.168C177.214 378.168 147.408 393.933 147.408 393.933Z" fill="#C47B9E"/>
<path fill-rule="evenodd" clip-rule="evenodd" d="M230.267 413.669C230.036 413.322 229.84 412.943 229.685 412.534C226.479 404.053 175.117 312.571 170 295.845H227.826C231.717 308.562 249.227 388.365 251.691 404.287C259.467 429.402 275.475 510.74 277.519 516.375C279.669 522.303 267.572 528.478 264.349 521.191C259.22 509.595 246.999 477.51 241.557 457.919C236.456 439.553 232.302 423.03 230.267 413.669Z" fill="#784931"/>
<path fill-rule="evenodd" clip-rule="evenodd" d="M182.957 424.839C159.475 430.773 73.584 441.503 67.6898 443.186C61.6265 444.917 56.3101 432.419 63.8047 429.712C75.7299 425.404 108.589 415.451 128.512 411.389C144.536 408.122 159.159 405.456 168.976 403.895C168.145 376.318 164.343 310.139 166.835 295.845H218C215.61 309.552 195.41 409.563 191.656 419.574C190.464 423.147 186.909 424.727 182.957 424.839V424.839Z" fill="#915B3C"/>
<path fill-rule="evenodd" clip-rule="evenodd" d="M65.931 428.919C66.2093 427.782 65.5181 426.61 64.3647 426.408C62.261 426.04 59.1268 425.601 57.4556 425.895C54.7918 426.365 49.8377 428.154 49.8377 428.154C50.3826 431.244 59.6318 483.699 59.6318 483.699C59.6318 483.699 67.1714 484.602 66.9196 479.836C66.6678 475.071 66.5837 471.904 66.5837 471.904L73.5407 444.058C73.6773 443.511 73.3356 442.96 72.7853 442.839L68.4672 441.889C68.4672 441.889 65.6909 437.926 65.2149 435.226C64.925 433.583 65.4645 430.825 65.931 428.919Z" fill="white"/>
<path fill-rule="evenodd" clip-rule="evenodd" d="M263.45 519.129C262.378 518.658 261.104 519.135 260.705 520.236C259.977 522.243 259 525.254 259 526.951C259 529.656 259.901 534.845 259.901 534.845C263.039 534.845 316.303 534.845 316.303 534.845C316.303 534.845 318.502 527.577 313.765 526.997C309.028 526.418 305.895 525.951 305.895 525.951L279.68 514.264C279.165 514.034 278.563 514.275 278.348 514.796L276.663 518.884C276.663 518.884 272.278 520.93 269.537 520.93C267.868 520.93 265.246 519.919 263.45 519.129Z" fill="white"/>
<path fill-rule="evenodd" clip-rule="evenodd" d="M167 295.845C167 295.845 200.82 286.169 231 295.845C238 327.782 255.009 340.458 258 389.424C224 406.318 182 377.375 147 393.85C137 370.806 151 315.31 167 295.845Z" fill="#FFA7D1"/>
<path fill-rule="evenodd" clip-rule="evenodd" d="M294.372 307.603L266.044 279.968L256.636 296.247L286.093 313.615C293.479 325.25 297.817 330.277 299.107 328.697C300.195 327.364 299.696 325.903 299.237 324.558C298.879 323.51 298.545 322.532 299.004 321.739C300.051 319.927 305.965 320.964 311.535 322.189C317.105 323.413 315.817 320.677 314.633 319.249C309.368 315.001 302.615 311.118 294.372 307.603ZM127.398 347.753C130.328 341.808 140.308 283.865 140.308 283.865L161.205 283.947C161.205 283.947 141.851 346.428 140.308 350.251C138.304 355.217 141.708 362.432 144.016 367.325C144.373 368.082 144.704 368.783 144.985 369.412C141.782 370.845 140.243 369.113 138.622 367.287C136.79 365.224 134.851 363.042 130.288 365.164C128.525 365.985 126.857 366.954 125.227 367.902C119.597 371.174 114.425 374.181 107.389 369.839C106.274 369.151 105.051 366.56 108.005 364.535C115.362 359.49 125.965 350.66 127.398 347.753Z" fill="#915B3C"/>
<path fill-rule="evenodd" clip-rule="evenodd" d="M199.695 196.177L208.342 194.694C223.23 231.884 249.222 265.676 286.318 296.07L258.286 330.126C221.194 286.85 198.33 242.2 199.695 196.177Z" fill="#80C0D5"/>
<path fill-rule="evenodd" clip-rule="evenodd" d="M162 304.845H239C239 304.845 212.241 239.783 212.241 194.306L189.014 190.845C170.76 220.203 165.605 256.35 162 304.845Z" fill="#DDE3E9"/>
<path fill-rule="evenodd" clip-rule="evenodd" d="M127 337.845C135.421 242.841 188.504 190.845 188.504 190.845L188.522 190.861C188.525 190.856 188.529 190.85 188.532 190.845H190.048C192.769 190.939 198.338 191.183 198.338 191.183L203.95 207.222C204.841 236.555 214.351 325.451 214.351 325.451H163.95C164.036 329.527 164.225 333.66 164.531 337.845H127Z" fill="#9DDEF3"/>
<path fill-rule="evenodd" clip-rule="evenodd" d="M163.959 325.845C163.556 308.095 165.131 291.429 167.758 276.347C169.132 294.244 172.003 315.778 178 325.845H163.959Z" fill="black" fill-opacity="0.1"/>
<path fill-rule="evenodd" clip-rule="evenodd" d="M175.111 294.845L200 283.274V294.845H175.111Z" fill="white" fill-opacity="0.2"/>
</svg>
